{
    "asset" : {
        "generator" : "Khronos glTF Blender I/O v1.3.48",
        "version" : "2.0"
    },
    "scene" : 0,
    "scenes" : [
        {
            "name" : "Scene",
            "nodes" : [
                0,
                1,
                2
            ]
        }
    ],
    "nodes" : [
        {
            "mesh" : 0,
            "name" : "Cylinder",
            "scale" : [
                1,
                0.14940083026885986,
                1
            ]
        },
        {
            "mesh" : 1,
            "name" : "Circle",
            "scale" : [
                0.5815384387969971,
                0.5815384387969971,
                0.5815384387969971
            ],
            "translation" : [
                0,
                0.12305749207735062,
                0
            ]
        },
        {
            "mesh" : 2,
            "name" : "Cube",
            "scale" : [
                0.22622740268707275,
                0.061379436403512955,
                0.22622740268707275
            ],
            "translation" : [
                0,
                0.25375789403915405,
                0
            ]
        }
    ],
    "materials" : [
        {
            "doubleSided" : true,
            "emissiveFactor" : [
                0,
                0,
                0
            ],
            "name" : "Material.001",
            "pbrMetallicRoughness" : {
                "baseColorFactor" : [
                    0.5925785303115845,
                    0.3782448470592499,
                    0.16590143740177155,
                    1
                ],
                "metallicFactor" : 0,
                "roughnessFactor" : 0.5
            }
        },
        {
            "alphaMode" : "BLEND",
            "doubleSided" : true,
            "emissiveFactor" : [
                0,
                0,
                0
            ],
            "name" : "Material.003",
            "pbrMetallicRoughness" : {
                "baseColorFactor" : [
                    0.5271152853965759,
                    0.11697061359882355,
                    0.014443855732679367,
                    1
                ],
                "metallicFactor" : 0,
                "roughnessFactor" : 0.5
            }
        },
        {
            "alphaMode" : "BLEND",
            "emissiveFactor" : [
                0,
                0,
                0
            ],
            "name" : "Material.002",
            "pbrMetallicRoughness" : {
                "baseColorFactor" : [
                    0.6151776313781738,
                    0.25842615962028503,
                    0.12407141923904419,
                    0.5
                ],
                "metallicFactor" : 0,
                "roughnessFactor" : 0
            }
        },
        {
            "doubleSided" : true,
            "emissiveFactor" : [
                0,
                0,
                0
            ],
            "name" : "Material.004",
            "pbrMetallicRoughness" : {
                "baseColorFactor" : [
                    1,
                    0.6104957461357117,
                    0.1221388429403305,
                    1
                ],
                "metallicFactor" : 0,
                "roughnessFactor" : 0.5
            }
        }
    ],
    "meshes" : [
        {
            "name" : "Cylinder",
            "primitives" : [
                {
                    "attributes" : {
                        "POSITION" : 0,
                        "NORMAL" : 1,
                        "TEXCOORD_0" : 2
                    },
                    "indices" : 3,
                    "material" : 0
                },
                {
                    "attributes" : {
                        "POSITION" : 4,
                        "NORMAL" : 5,
                        "TEXCOORD_0" : 6
                    },
                    "indices" : 7,
                    "material" : 1
                }
            ]
        },
        {
            "name" : "Circle.001",
            "primitives" : [
                {
                    "attributes" : {
                        "POSITION" : 8,
                        "NORMAL" : 9,
                        "TEXCOORD_0" : 10
                    },
                    "indices" : 11,
                    "material" : 2
                }
            ]
        },
        {
            "name" : "Cube.001",
            "primitives" : [
                {
                    "attributes" : {
                        "POSITION" : 12,
                        "NORMAL" : 13,
                        "TEXCOORD_0" : 14
                    },
                    "indices" : 15,
                    "material" : 3
                }
            ]
        }
    ],
    "accessors" : [
        {
            "bufferView" : 0,
            "componentType" : 5126,
            "count" : 1664,
            "max" : [
                0.9865695238113403,
                0.9693725109100342,
                0.9865695238113403
            ],
            "min" : [
                -0.9865694642066956,
                -0.9969940185546875,
                -0.9592358469963074
            ],
            "type" : "VEC3"
        },
        {
            "bufferView" : 1,
            "componentType" : 5126,
            "count" : 1664,
            "type" : "VEC3"
        },
        {
            "bufferView" : 2,
            "componentType" : 5126,
            "count" : 1664,
            "type" : "VEC2"
        },
        {
            "bufferView" : 3,
            "componentType" : 5123,
            "count" : 2496,
            "type" : "SCALAR"
        },
        {
            "bufferView" : 4,
            "componentType" : 5126,
            "count" : 640,
            "max" : [
                0.8156521320343018,
                1.0000003576278687,
                0.8156521320343018
            ],
            "min" : [
                -0.8156521320343018,
                0.8944823741912842,
                -0.808367908000946
            ],
            "type" : "VEC3"
        },
        {
            "bufferView" : 5,
            "componentType" : 5126,
            "count" : 640,
            "type" : "VEC3"
        },
        {
            "bufferView" : 6,
            "componentType" : 5126,
            "count" : 640,
            "type" : "VEC2"
        },
        {
            "bufferView" : 7,
            "componentType" : 5123,
            "count" : 960,
            "type" : "SCALAR"
        },
        {
            "bufferView" : 8,
            "componentType" : 5126,
            "count" : 784,
            "max" : [
                1.1511564254760742,
                0.12565523386001587,
                1.348938226699829
            ],
            "min" : [
                -1.3399215936660767,
                0,
                -1.3655295372009277
            ],
            "type" : "VEC3"
        },
        {
            "bufferView" : 9,
            "componentType" : 5126,
            "count" : 784,
            "type" : "VEC3"
        },
        {
            "bufferView" : 10,
            "componentType" : 5126,
            "count" : 784,
            "type" : "VEC2"
        },
        {
            "bufferView" : 11,
            "componentType" : 5123,
            "count" : 1176,
            "type" : "SCALAR"
        },
        {
            "bufferView" : 12,
            "componentType" : 5126,
            "count" : 24,
            "max" : [
                1,
                1,
                1
            ],
            "min" : [
                -1,
                -1,
                -1
            ],
            "type" : "VEC3"
        },
        {
            "bufferView" : 13,
            "componentType" : 5126,
            "count" : 24,
            "type" : "VEC3"
        },
        {
            "bufferView" : 14,
            "componentType" : 5126,
            "count" : 24,
            "type" : "VEC2"
        },
        {
            "bufferView" : 15,
            "componentType" : 5123,
            "count" : 36,
            "type" : "SCALAR"
        }
    ],
    "bufferViews" : [
        {
            "buffer" : 0,
            "byteLength" : 19968,
            "byteOffset" : 0
        },
        {
            "buffer" : 0,
            "byteLength" : 19968,
            "byteOffset" : 19968
        },
        {
            "buffer" : 0,
            "byteLength" : 13312,
            "byteOffset" : 39936
        },
        {
            "buffer" : 0,
            "byteLength" : 4992,
            "byteOffset" : 53248
        },
        {
            "buffer" : 0,
            "byteLength" : 7680,
            "byteOffset" : 58240
        },
        {
            "buffer" : 0,
            "byteLength" : 7680,
            "byteOffset" : 65920
        },
        {
            "buffer" : 0,
            "byteLength" : 5120,
            "byteOffset" : 73600
        },
        {
            "buffer" : 0,
            "byteLength" : 1920,
            "byteOffset" : 78720
        },
        {
            "buffer" : 0,
            "byteLength" : 9408,
            "byteOffset" : 80640
        },
        {
            "buffer" : 0,
            "byteLength" : 9408,
            "byteOffset" : 90048
        },
        {
            "buffer" : 0,
            "byteLength" : 6272,
            "byteOffset" : 99456
        },
        {
            "buffer" : 0,
            "byteLength" : 2352,
            "byteOffset" : 105728
        },
        {
            "buffer" : 0,
            "byteLength" : 288,
            "byteOffset" : 108080
        },
        {
            "buffer" : 0,
            "byteLength" : 288,
            "byteOffset" : 108368
        },
        {
            "buffer" : 0,
            "byteLength" : 192,
            "byteOffset" : 108656
        },
        {
            "buffer" : 0,
            "byteLength" : 72,
            "byteOffset" : 108848
        }
    ],
    "buffers" : [
        {
            "byteLength" : 108920,
            "uri" : "data:application/octet-stream;base64,"
        }
    ]
}
